<svg xmlns="http://www.w3.org/2000/svg" xmlns:xlink="http://www.w3.org/1999/xlink" width="1280" height="720" viewBox="0 0 1280 720">
  <defs>
    <clipPath id="clip-path">
      <path id="Path_8" data-name="Path 8" d="M0,0H1280V720H0Z" fill="#fff" stroke="#f70921" stroke-width="1"/>
    </clipPath>
  </defs>
  <g id="home-bg" clip-path="url(#clip-path)">
    <circle id="Ellipse_1" data-name="Ellipse 1" cx="63" cy="63" r="63" transform="translate(1021 106)" fill="none" stroke="#f70921" stroke-linejoin="round" stroke-width="13"/>
    <g id="Group_2" data-name="Group 2">
      <path id="Path_1" data-name="Path 1" d="M1154-17.5c0-76.492-64.243-138.5-143.5-138.5S867-93.992,867-17.5" transform="translate(2114 235.5) rotate(-180)" fill="none" stroke="#f7e709" stroke-linecap="round" stroke-linejoin="round" stroke-width="13"/>
      <path id="Path_2" data-name="Path 2" d="M1304.83,940C1219.873,940,1151,864.565,1151,771.512a179.77,179.77,0,0,1,22.7-88.142M1410,602H1305.2c-33.533,0-64.564,11.6-89.845,31.3" transform="translate(-109 -336)" fill="none" stroke="#f80332" stroke-linecap="round" stroke-linejoin="round" stroke-width="13"/>
      <g id="Group_1" data-name="Group 1">
        <path id="Path_3" data-name="Path 3" d="M1209,383.333V141M961,383.333V729" transform="translate(21 -141)" fill="none" stroke="#060606" stroke-linecap="round" stroke-linejoin="round" stroke-width="13"/>
      </g>
      <path id="Path_4" data-name="Path 4" d="M943,481V50.333" fill="none" stroke="#0d0d0d" stroke-linecap="round" stroke-linejoin="round" stroke-width="13"/>
      <path id="Path_10" data-name="Path 10" d="M993,195.667V50.333" transform="translate(1056 1490) rotate(-90)" fill="none" stroke="#f7e709" stroke-linecap="round" stroke-linejoin="round" stroke-width="13"/>
    </g>
    <path id="Path_7" data-name="Path 7" d="M867.5,9V455.667" transform="translate(24 105)" fill="none" stroke="#f70921" stroke-linecap="round" stroke-linejoin="round" stroke-width="13"/>
    <circle id="Ellipse_2" data-name="Ellipse 2" cx="31.5" cy="31.5" r="31.5" transform="translate(977 17)" fill="none" stroke="#f7e709" stroke-linejoin="round" stroke-width="13"/>
    <circle id="Ellipse_3" data-name="Ellipse 3" cx="15.5" cy="15.5" r="15.5" transform="translate(1116 22)" fill="none" stroke="#f7e709" stroke-linejoin="round" stroke-width="13"/>
    <circle id="Ellipse_4" data-name="Ellipse 4" cx="27.5" cy="27.5" r="27.5" transform="translate(1178 390)" fill="none" stroke="#f70921" stroke-linejoin="round" stroke-width="13"/>
    <circle id="Ellipse_5" data-name="Ellipse 5" cx="31.5" cy="31.5" r="31.5" transform="translate(899 610)" fill="none" stroke="#090909" stroke-linejoin="round" stroke-width="13"/>
    <circle id="Ellipse_6" data-name="Ellipse 6" cx="15.5" cy="15.5" r="15.5" transform="translate(1025 545)" fill="none" stroke="#f70921" stroke-linejoin="round" stroke-width="13"/>
  </g>
</svg>
